<svg xmlns="http://www.w3.org/2000/svg" viewBox="0 0 26.91 21.06"><defs><style>.cls-1{isolation:isolate;}.cls-2{fill:#171717;}</style></defs><g id="Layer_2" data-name="Layer 2"><g id="Layer_5" data-name="Layer 5"><g id="_" data-name=" " class="cls-1"><g class="cls-1"><path class="cls-2" d="M1.76,19.15A7.26,7.26,0,0,1,0,14Q0,6.87,4.68,2.81A13.27,13.27,0,0,1,9.36,0l.78,2A11.47,11.47,0,0,0,6.86,3.74a10.36,10.36,0,0,0-4.13,6.79l1-.55a5.66,5.66,0,0,1,2.5-.62,5.63,5.63,0,0,1,4.1,1.76,5.65,5.65,0,0,1,0,8.18,5.63,5.63,0,0,1-4.1,1.76A5.82,5.82,0,0,1,1.76,19.15Zm14.82,0A7.26,7.26,0,0,1,14.82,14q0-7.17,4.68-11.23A12.44,12.44,0,0,1,24.18,0L25,2a11.47,11.47,0,0,0-3.28,1.79,10.36,10.36,0,0,0-4.13,6.79l1-.55a5.54,5.54,0,0,1,6.6,1.14,5.65,5.65,0,0,1,0,8.18,5.63,5.63,0,0,1-4.1,1.76A5.82,5.82,0,0,1,16.58,19.15Z"/></g></g></g></g></svg>