<svg xmlns="http://www.w3.org/2000/svg" viewBox="0 0 30.5 7.5"><defs><style>.cls-1{isolation:isolate;}.cls-2{fill:#171717;}</style></defs><g id="Layer_2" data-name="Layer 2"><g id="Layer_5" data-name="Layer 5"><g id="_" data-name=" " class="cls-1"><g class="cls-1"><path class="cls-2" d="M1.12,6.38a3.65,3.65,0,0,1,0-5.26,3.65,3.65,0,0,1,5.26,0,3.65,3.65,0,0,1,0,5.26,3.65,3.65,0,0,1-5.26,0Zm11.5,0a3.65,3.65,0,0,1,0-5.26,3.65,3.65,0,0,1,5.26,0,3.65,3.65,0,0,1,0,5.26,3.65,3.65,0,0,1-5.26,0Zm11.5,0a3.65,3.65,0,0,1,0-5.26,3.65,3.65,0,0,1,5.26,0,3.65,3.65,0,0,1,0,5.26,3.65,3.65,0,0,1-5.26,0Z"/></g></g></g></g></svg>