<svg xmlns="http://www.w3.org/2000/svg" width="187.347" height="205.474" viewBox="0 0 187.347 205.474">
  <g id="graphic" transform="translate(-1811.397 -518.228)">
    <g id="phone">
      <g id="Rectangle_8" data-name="Rectangle 8" transform="translate(1861.397 531.35)" fill="none" stroke="#121212" stroke-miterlimit="10" stroke-width="1">
        <rect width="87.408" height="192.353" rx="7.238" stroke="none"/>
        <rect x="0.5" y="0.5" width="86.408" height="191.353" rx="6.738" fill="none"/>
      </g>
      <path id="Rectangle_103" data-name="Rectangle 103" d="M0,0H34.547a0,0,0,0,1,0,0V2.547a2,2,0,0,1-2,2H2a2,2,0,0,1-2-2V0A0,0,0,0,1,0,0Z" transform="translate(1887.998 531.35)" fill="#121212"/>
    </g>
    <g id="Group_1" data-name="Group 1">
      <path id="Path_3" data-name="Path 3" d="M1901.777,691.089a.759.759,0,0,1-.181-.479c.1-1.432.228-2.862.346-4.292a85.819,85.819,0,0,0,.517-8.645c-.018-1,.037-2.011.073-3.016.019-.518.088-1.034.1-1.551a51.138,51.138,0,0,1,.366-6.067,18.721,18.721,0,0,0,.142-5.422,10.835,10.835,0,0,1-.091-1.81,28.714,28.714,0,0,0-.508-6.048c-.26-1.364-.245-2.778-.41-4.162a5.885,5.885,0,0,0-.447-1.659,22.38,22.38,0,0,0-1.933-3.933,2.162,2.162,0,0,1-.311-.608,1.168,1.168,0,0,0-1.2-.877,10,10,0,0,0-1.109.011c-.269.018-.391-.089-.357-.342a.941.941,0,0,1,.155-.41.811.811,0,0,0-.107-1.094l-.008-.005a3.755,3.755,0,0,1,.21-.69.874.874,0,0,0-.117-.92,1.2,1.2,0,0,1-.235.181c-.145.06-.379.177-.437.123a1.046,1.046,0,0,1-.3-.547,10.236,10.236,0,0,1-.081-1.126l-.11-.019c-.115.261-.224.525-.347.782-.225.468-.367.479-.651.062a.9.9,0,0,0-.17-.222c-.078-.061-.2-.137-.272-.114s-.124.156-.151.25a3.652,3.652,0,0,1-.1.468.372.372,0,0,1-.261.2c-.078,0-.194-.125-.233-.22-.192-.463-.185-.466-.508-.434-.381-.364-.7-.676-1.03-.974-.035-.032-.142.016-.216.027a.855.855,0,0,0,.062.29,1.023,1.023,0,0,1,.136,1.085c-.232.518-.706.381-1.071.535-.08.033-.192-.016-.277.012-.281.09-.429-.006-.5-.287a1.374,1.374,0,0,0-.183-.322l-.11.018a3.064,3.064,0,0,1-.114.562c-.043.11-.175.185-.267.275-.025-.119-.1-.255-.065-.356q.269-.828.588-1.639c.044-.113.208-.176.271-.287.08-.142.185-.333.145-.461s-.238-.211-.379-.292c-.234-.132-.484-.238-.718-.371-.367-.209-.74-.413-1.085-.656a.978.978,0,0,1-.351-.467.472.472,0,0,0-.613-.361,2.142,2.142,0,0,1-.594.086.894.894,0,0,1-.47-.25c-.283-.275-.5-.292-.635.071a.909.909,0,0,1-.882.608c-.511.068-1,.6-.913.96a4.44,4.44,0,0,0,.306.6,1.825,1.825,0,0,1,.075.4,1.753,1.753,0,0,1-.383,0c-.307-.063-.605-.139-.652-.543a.337.337,0,0,0-.277-.173.522.522,0,0,1-.7-.308l-.2.129-.362-.443.181-.3c-.087-.049-.154-.119-.218-.117-.384.013-.768.038-1.151.072a.275.275,0,0,0-.2.12c-.229.529-.8.546-1.2.8-.089.057-.245.008-.371.008,0-.137-.041-.3.022-.4a1.458,1.458,0,0,1,.406-.379,7.816,7.816,0,0,1,.714-.453,1.161,1.161,0,0,0,.67-1.014,1.712,1.712,0,0,1,1.122-1.139c.066,0,.212.173.207.259-.023.36-.112.716-.122,1.076,0,.079.211.225.335.238a1.617,1.617,0,0,0,1.224-.925c.063-.261-.06-.38-.331-.317-.148.034-.3.072-.517.126l.168-.921-1.045-.3c.192-.148.459-.335.7-.55.083-.073.174-.242.142-.318-.049-.119-.2-.2-.307-.293-.078.09-.16.178-.233.271a2.148,2.148,0,0,0-.129.2l-.558-.38c.226-.3.207-.323-.185-.441a2.891,2.891,0,0,1-.582-.37,5.811,5.811,0,0,0-.21.761c-.032.223-.047.379-.336.393a.739.739,0,0,0-.433.228c-.3.306-.323.312-.511-.077-.033-.069-.074-.134-.132-.239l-.379.43-.046-.028.3-.778-.159-.092-.295.425c-.086.124-.172.248-.257.372-.123-.088-.244-.181-.37-.265s-.3-.254-.4-.224a.766.766,0,0,0-.362.361c-.093.157-.1.364-.2.516a.328.328,0,0,1-.314.059c-.173-.164-.316-.114-.51-.049a1.687,1.687,0,0,1-.523.011l-.049-.1,1.25-1.3a2.525,2.525,0,0,1-.566-.363,2.632,2.632,0,0,1-.289-.6c.519-.29.438-.715.071-1.224l-.776,1.062-.1-.063,1.138-1.785-.13-.107a2.076,2.076,0,0,0-.83.708c-.2.232-.289.6-.6.108-.027-.044-.234-.008-.337.038a4,4,0,0,1-.6.267c.245-.879,1.172-1.059,1.711-1.711-.113,0-.186-.023-.226,0-.326.209-.543.176-.7-.221-.037-.1-.285-.14-.438-.147a2.018,2.018,0,0,0-.518.142,2.249,2.249,0,0,1,.013-.677c.1-.3-.047-.382-.3-.495l-.522.91c-.01-.014-.074-.1-.135-.189s-.115-.172-.2-.3l-.308.679-.1-.039.109-.52-.278.068-.143-.631c-.309.021-.587.123-.742.027-.17-.106-.226-.394-.359-.658a4.992,4.992,0,0,1-.375.713c-.087.115-.271.158-.411.233,0-.135-.005-.271-.006-.406,0-.67.6-.663,1-.884.175-.1.373-.116.35-.4-.008-.1.125-.247.23-.3.343-.167.593-.374.523-.827l-.791.432-.12-.126c.3-.233.738-.516.3-.839-.308-.226-.566.127-.682.471l-.068-.114c-.183.094-.364.192-.55.281a2.349,2.349,0,0,1-.275.1c.007-.108-.022-.243.031-.32a4.652,4.652,0,0,1,.389-.407c.094-.1.171-.221.256-.333l-.084-.119-.627.344v-.541l-.518.109-.052-.071c.173-.123.344-.25.519-.37.443-.3.893-.594,1.33-.905a1.5,1.5,0,0,0,.252-.312l-.081-.1c-.169.08-.34.224-.506.218-.136,0-.266-.188-.448-.331l-1.135.479-.055-.113c.256-.127.508-.262.768-.379s.532-.194.782-.323c.228-.117.411-.286.189-.57l0,0,.024-.483-.7.116.221-.78-.9.514-.055-.077.577-.523-.713.1-.04-.075.562-.442-.3-.22a1.368,1.368,0,0,1,.218-.17c.218-.108.4-.217.31-.521a.44.44,0,0,1,.125-.311c.346-.419.7-.836,1.061-1.24.278-.308.579-.6.918-.942a.542.542,0,0,1-.084-.215c-.053-.578-.059-.6-.564-.314a7.809,7.809,0,0,0-.837.631l-.132-.182-.708.442-.088-.1c.061-.093.122-.186.181-.28.041-.067.13-.162.111-.2-.268-.513.214-.465.44-.573a4.3,4.3,0,0,1,.622-.162c.505-.149.664-.481.481-1.085l-.54.582-.1-.066.6-.915-.064-.083-1.037.664-.109-.118c.212-.209.412-.432.638-.624.245-.208.514-.387.829-.62.384.263.8.563,1.227.83a1.324,1.324,0,0,0,.588.2,1.293,1.293,0,0,0,.464-.16,1.361,1.361,0,0,0-.2-.462.7.7,0,0,0-.451-.156,4.007,4.007,0,0,0-.678.1c.185-.152.423-.273.41-.351-.047-.277-.274-.264-.507-.2a1.409,1.409,0,0,1-.331.028c0-.365.012-.7-.008-1.033-.005-.094-.1-.249-.165-.258-.09-.011-.207.079-.29.151-.281.245-.546.509-.83.749-.066.056-.184.05-.278.072l-.059-.1c.354-.311.71-.62,1.063-.933a2.249,2.249,0,0,0,.428-.409c.146-.227.184-.447-.193-.536-.142-.033-.254-.2-.4-.322l-.241.637-.123-.037.12-.624-.072-.052a1.688,1.688,0,0,1-.261.289,2.433,2.433,0,0,1-.408.2c-.008-.133-.023-.265-.024-.4a1.676,1.676,0,0,1,.064-.279l-.821.4c.162-.31.262-.556-.126-.75a.553.553,0,0,1,.073-.378,3.575,3.575,0,0,1,.469-.444l-.555-.325c-.273.176-.5.121-.634-.259-.019-.053-.29-.088-.379-.03a1.045,1.045,0,0,1-1,.11.554.554,0,0,1,.511-.559c.079-.015.156-.041.235-.06.69-.168.83-.45.541-1.219-.121.134-.215.248-.319.352s-.226.21-.339.314l-.148-.018a2.734,2.734,0,0,0-.1-.667c-.229-.546.21-.749.474-1.06a.521.521,0,0,0,.061-.4c-.075-.336.192-.406.382-.513.133-.075.332-.039.46-.119a1.886,1.886,0,0,0,.353-.389l-.319-.187-.261-.387a5.93,5.93,0,0,1,.442-.484,1.428,1.428,0,0,1,.541-.376c.45-.1.495-.412.545-.86l-.587.353-.6-.89.769-.838c-.293-.363-.152-1.073-.961-.988l.209-.354a.428.428,0,0,1-.328-.659l-.868.24-.057-.127c.19-.093.379-.189.571-.28a1.6,1.6,0,0,0,.911-2.217l-.413.344-.026-.025.253-.389-.282-.04c.154-.22.6-.17.524-.642-.355.234-.689.328-1.026-.016a2.893,2.893,0,0,1,.492-.63,3.135,3.135,0,0,1,.772-.308l-.34-.914a8.647,8.647,0,0,1,.718-.639.661.661,0,0,1,.814.057,7,7,0,0,0,1.106.553c.109.046.267-.026.5-.057l-.322-.27c.164-.2.332-.392.477-.6a1.266,1.266,0,0,0,.113-.317,2.355,2.355,0,0,0-.323-.022,1.885,1.885,0,0,0-.292.064l-.06-.089a7.5,7.5,0,0,1,.715-.656,1.211,1.211,0,0,0,.367-.876c.027-.367-.209-.826.255-1.115.077-.048.091-.221.107-.339a4.169,4.169,0,0,0,0-.469l.283.2.094-.057c-.055-.132-.073-.32-.172-.385-.336-.221-.265-.411-.014-.628.024-.021.024-.07.046-.137l-.4.03c-.262-.747-.344-.79-.862-.562l-.77-.2c.231-.172.435-.339.654-.484.19-.126.428-.2.328-.514a.15.15,0,0,1,.065-.13c.409-.2.281-.494.142-.778-.041-.083-.158-.133-.248-.185-.042-.025-.138,0-.149-.028-.16-.357-.466-.323-.8-.344a2.291,2.291,0,0,0,.334-.248c.086-.09.218-.242.19-.317-.152-.418.147-.517.413-.646.349-.168.715-.307,1.046-.5a3.247,3.247,0,0,0,.483-.477c.092-.086.206-.22.306-.216a2.036,2.036,0,0,0,1.451-.688,1.681,1.681,0,0,0,.2-.257l-.06-.1-.748.158-.032-.576a.981.981,0,0,1,.29-.023,1.8,1.8,0,0,0,1.412-.492c.072-.056.161-.18.141-.238a.324.324,0,0,0-.232-.188c-.415-.019-.831-.009-1.258-.009l.086-.3.069.074c.193-.166.383-.336.58-.5a.871.871,0,0,1,.264-.162c.265-.09.537-.16.8-.244s.6-.174.545-.533a4.07,4.07,0,0,0-.351-.86,3.935,3.935,0,0,1-.615.811,1.869,1.869,0,0,1-.74.2c-.269.05-.542.078-.812.116l-.068-.19a1.677,1.677,0,0,0,1.6-1.014.309.309,0,0,1-.086-.095c-.051-.083-.132-.19-.112-.262a.3.3,0,0,1,.223-.181c.524.045,1.042-.324,1.586.082a.684.684,0,0,0,1.014-.313,1.2,1.2,0,0,0,.084-.292c-.109-.028-.217-.062-.327-.083-.144-.029-.29-.048-.435-.07v-.155l.761-.255-.6-.271c.187-.039.276-.088.345-.068.324.092.408-.094.44-.353.019-.149-.02-.358.064-.437a5.516,5.516,0,0,1,.956-.751,7.736,7.736,0,0,1,.831-.284c.121-.053.195-.209.291-.318-.13-.09-.257-.186-.392-.268a.172.172,0,0,0-.105-.007c-.024-.293-.047-.563-.069-.833-.007-.093-.051-.217-.008-.275.26-.353-.089-.713.018-1.068a.458.458,0,0,0-.294-.149c-.311.078-.611.2-.987.336a1.173,1.173,0,0,1,.041.358.989.989,0,0,1-.175.319c-.077-.092-.226-.191-.218-.274a7.588,7.588,0,0,1,.193-.879l-1.279.6c.25-.326.342-.629.761-.66a.481.481,0,0,0,.383-.615c-.03-.169-.222-.309-.375-.505.342-.2.485-.871,1.189-.706.084.02.207-.126.311-.2l-.273-.362c.379-.493,1.216-.648,1.316-1.4l-.68-.3c.215-.228.345-.378.488-.515a1.132,1.132,0,0,1,1.5-.126c.326.233.612.523.93.767.267.205.371.174.588-.137h-.455a.878.878,0,0,1,.621-.93,5.128,5.128,0,0,1,.729-.321c.1-.017.178-.178.265-.273l-.086-.09.453-.133c-.118-.363-.4-.307-.64-.344a2.988,2.988,0,0,1-.395-.024c-.3-.092-.34-.28-.141-.511.173-.2.341-.407.508-.613s.387-.238.788-.044l-.444.183c-.037.5.061.6.539.588.2,0,.4.029.6.045a.377.377,0,0,0,.427-.468c-.012-.07-.04-.162-.008-.21a1.155,1.155,0,0,1,1.914-.009c.149.219.259.464.4.715l-.321.19c.059.267.166.368.454.317a3.11,3.11,0,0,0,1.44-.429c.158-.115.569.038.824.156.283.13.482.2.664-.124.042-.074.185-.088.278-.137.125-.068.295-.115.361-.223.167-.271.39-.274.661-.247a6.682,6.682,0,0,0,.8-.027c-.328-.362-.183-.463.07-.571.278-.12.514-.346.8-.439a3.253,3.253,0,0,1,1.115-.2.979.979,0,0,0,.885-.325,1.622,1.622,0,0,1,1.162-.717c.1,0,.206-.1.3-.167.151-.106.286-.237.444-.33a3.219,3.219,0,0,0,.895-.54,2.263,2.263,0,0,1,1.178-.379.719.719,0,0,0,.489-.248,2.032,2.032,0,0,1,1.485-.918.966.966,0,0,0,.525-.29c.382-.334.633-.322.864.113.6-.452.978.165,1.464.315.444.137.892.271,1.322.445.517.21,1.024.449,1.524.7a1.725,1.725,0,0,0,.859.234,2.942,2.942,0,0,1,1.062.335.778.778,0,0,0,1.064-.458c.068-.212.1-.434.156-.651.016-.063.024-.155.067-.18.427-.245.78-.69,1.378-.469a5.278,5.278,0,0,0,.827.167c.336.065.66.126.757.546.02.089.2.182.311.2a4.206,4.206,0,0,0,.635.009c.041.314-.013.614.313.858a1.169,1.169,0,0,1,.422.976c-.01.36-.289.536-.754.531.172.155.355.3.512.467a1.373,1.373,0,0,1,.315.452c.116.331.269.358.56.145s.573-.49,1.006-.333a2.619,2.619,0,0,0,1.825-.232.533.533,0,0,1,.715.317.518.518,0,0,0,.139.185c.313.22.633.43.995.672-.465.147-.513.363-.235.658s.525.611.816.886a6.662,6.662,0,0,0,.714.525l-.277.164.532.325-.087.088a.253.253,0,0,1-.025.075c-.113.152-.229.3-.344.452.248.113.516.349.74.314.528-.083.739.376,1.107.545.2.092-.059.242-.2.3-.26.1-.524.2-.786.3l.034.125.359.025.079.1-.41.227a12.539,12.539,0,0,1,2.866.624l-.006.106-.6.077a1,1,0,0,0,.787.368,2.715,2.715,0,0,1,.822.241c.087.036.2.207.178.279-.139.463.187.588.412.69l.274.912-.517-.15c-.029.077-.089.16-.069.192.189.3-.106.786.378.964-.068.451.73.617.365,1.162a1.557,1.557,0,0,1-1.255-.694.535.535,0,0,0-.061.95c.3.187.644.316.952.5a1.234,1.234,0,0,1,.329.345c.156.215.295.443.448.674l-.306.845-.276-.678c-.23.271-.725-.139-.867.378.273.205.544.4.8.606.28.224.583.432.639.831.006.038.023.094.051.106.424.188.845.385,1.283.532.048.016.224-.26.28-.422.017-.046-.168-.186-.28-.247a1.374,1.374,0,0,0-.349-.081,1.327,1.327,0,0,1,1.538-.309c.056.293.108.471.122.651.054.707.691,1.075,1.034,1.757l-.593-.4-.135.057.257,1.867-.418.288-.339-.45h-.579l.6.726c-.167.262-.292.458-.419.654a1.019,1.019,0,0,1-.115.16c-.085.086-.178.164-.267.246.127.087.252.177.382.26a.315.315,0,0,0,.1.036l.15.546h-.282c.017.4.336.479.579.606.47.245.525.4.238.818.22.4.22.4-.01.587l1.187,1.094c-.107.17-.218.272-.234.387-.06.447-.271.385-.543.191a.744.744,0,0,0-.142-.076c-.627-.265-.65-.314-.452-.949.027-.086.04-.177.06-.266l-.106-.082c-.176.227-.357.45-.526.682-.228.314-.068.567.148.8s.437.46.683.718l-.339.136c.123.27.224.545.369.794a8.056,8.056,0,0,0,.489.683l.056-.1.111.76c-.162-.2-.275-.339-.386-.479s-.22-.287-.33-.43l-.093.057c.094.2.2.394.278.6a1.5,1.5,0,0,1,.1.5c0,.084-.1.229-.168.238-.093.011-.2-.083-.3-.132-.122-.06-.246-.174-.365-.168-.393.017-.552-.205-.381-.588a3.381,3.381,0,0,1,.187-.31.678.678,0,0,0,.118-.343l-.523.285.175-1.105-.474.239-.223-.339-.463,1.036c.177.286.445.624.122,1.041-.034.044.04.193.094.273a.437.437,0,0,0,.2.131,1.251,1.251,0,0,1,.812,1.224l-.1.1a1.408,1.408,0,0,0-.173-.309c-.046-.051-.152-.049-.231-.071.009.094-.018.228.033.274.231.2.495.369.727.571.3.266.588.553.881.832l-.112.141-1.092-.738.187,1.27-.106.037-.554-.435v.8c.28.49.864.484,1.352.611a1.871,1.871,0,0,0,.881-.2c.241-.074.454-.156.636.125.033.051.341.013.349-.023a1.325,1.325,0,0,0-.009-.49c-.005-.033-.126-.047-.241-.085a3.22,3.22,0,0,1,1.916-.011.5.5,0,0,1,.435.57,1.025,1.025,0,0,0,.213.512c.267.4.556.8.836,1.194l-.1.128c-.317-.166-.627-.347-.954-.491-.144-.063-.4-.127-.47-.056-.226.228.039.362.192.453.345.205.713.372,1.071.556a1.33,1.33,0,0,1,.384.213.988.988,0,0,1,.13.365c-.125-.006-.275.03-.37-.027a3.739,3.739,0,0,1-.486-.409l-.112.111c.1.135.2.267.291.405.139.208.283.463.043.647s-.413-.04-.557-.227a1.039,1.039,0,0,0-.1-.106c-.367.066-.191.774-.755.593-.329-.105-.674-.159-1.08-.252.174.388.339.745.493,1.106a.865.865,0,0,1,.034.8c-.277.545-.253.557-.793.381-.066.689.415.874.93,1.055L1935.2,600c.649.652.635,1.646,1.37,2.185.056.041.073.135.114.217a1.356,1.356,0,0,1-.417.164c-.146,0-.373-.04-.427-.138-.191-.348-.54-.37-.845-.462-.113-.034-.271.077-.458.138l2.194,1.685h-.407c.505.3.922.58.328,1.1-.22-.039-.5-.1-.785-.131a.6.6,0,0,0-.324.082.832.832,0,0,0-.362.268.8.8,0,0,0-.1.554,2.365,2.365,0,0,0,.43.625c.178.227.316.433.048.7a.351.351,0,0,0,0,.341c.446.543.433.806-.1,1.26-.03.025-.054.056-.15.157l.159.051c.6.2.7.472.449,1.109a.4.4,0,0,0,.122.323,3.858,3.858,0,0,0,.573.442c.251.163.356.339.182.629a6.8,6.8,0,0,0-.312.7c-.193-.43-.387-.628-.759-.475-.034.014-.141-.18-.23-.26-.108-.1-.232-.175-.349-.261-.023.146-.11.329-.053.43a2.059,2.059,0,0,0,.458.489c.351.3.713.6,1.071.895l-.055.081-.476-.237-.044.76-.148.044-.569-.8c-.348.825-.689.159-1.132.212l1.053.811-1.134.968.017.119c.937.022,1.118.757,1.427,1.39.2.4.455.778.71,1.206a1.934,1.934,0,0,1-1.364-.412,1.707,1.707,0,0,0-.5-.155c-.055.229-.43.308-.262.654a2.531,2.531,0,0,0,.9,1.228,3.224,3.224,0,0,1,.748,1.007.245.245,0,0,1-.013.229c-.28.34-.113.657.039.968.114.232.107.387-.255.425l1.089,1.361c-.152.033-.313.079-.476.1a.323.323,0,0,1-.245-.054c-.123-.138-.2-.312-.323-.454a1.95,1.95,0,0,0-.3-.242c-.044.166-.174.381-.114.489a3.158,3.158,0,0,0,.539.586q.257.264.515.526l-.078.118-1.347-.53.289,1.555-.121.052-.537-.27-.062.069.929,1.039-.551.3-.377-.457c-.394.664-.394.664.509,1.508.049.168.09.34.149.505.07.2.155.384.238.587-.291-.09-.526-.158-.759-.235a.639.639,0,0,1-.466-.636c-.01-.249-.062-.42-.382-.347-.078.018-.183-.116-.283-.165-.137-.068-.28-.121-.421-.18l-.084.142c.176.208.368.4.525.627s.269.457.455.78l-.591-.184-.08.061.792,1.421c-.267-.041-.55-.175-.694-.085-.171.106-.223.4-.328.62.122.183.242.375.374.557a.6.6,0,0,0,.743.229c.61-.21,1.223-.409,1.837-.608.161-.052.327-.087.491-.13l.032.1c-.413.135-.827.266-1.238.408-.342.118-.681.246-1.019.375-.248.094-.29.241-.135.466a5.024,5.024,0,0,1,.281.521l-.076.066-.413-.379c-.077.122-.162.347-.23.342a1.1,1.1,0,0,1-.5-.207,1.089,1.089,0,0,0-1.537.465.568.568,0,0,0,.179.7,7.538,7.538,0,0,1,.929,1.32c.05.079.007.219.007.415l-.522-.339-.056.235-.621.189-.343-.376c-.154.464.307.673.3,1.028a.715.715,0,0,1-1.018-.146l-.123.48a2,2,0,0,1-.252-.365c-.122-.339-.3-.336-.535-.117-.049.046-.1.094-.146.139-.323.3-.409.274-.6-.129-.058-.121-.194-.2-.294-.3a2.239,2.239,0,0,0-.143.41,2.084,2.084,0,0,0,.02.4c.017.4-.024.433-.386.285a.444.444,0,0,0-.227-.053,1.214,1.214,0,0,1-1.006-.082l.231.8c-.606-.192-.478-.8-.869-1.115a2.1,2.1,0,0,0,.072,1.2c.054.183.1.528.039.56-.3.147-.443-.129-.583-.338-.109-.162-.2-.335-.318-.535a1.129,1.129,0,0,0,.254,1.422,3.375,3.375,0,0,1,.543.637c-.5-.057-.619-.585-1.085-.772.056.248.117.495.168.743a1.354,1.354,0,0,1,.081.586.552.552,0,0,1-.4.323c-.256.011-.31-.2-.239-.435.114-.377.224-.755.351-1.186-.539.183-1,1.142-.617,1.569a2.284,2.284,0,0,1,.36.669c.035.088-.028.217-.046.327-.11-.029-.261-.022-.323-.093a7.467,7.467,0,0,1-.47-.666,1.661,1.661,0,0,1-.23.374.643.643,0,0,1-.921-.058.41.41,0,0,0-.367-.062.475.475,0,0,0-.188.327,2.253,2.253,0,0,0,.038.5c-.478-.153-.4-.592-.627-.9l-.263,1.349-.237-.42c-.359.187-.2.763-.644.609a2.975,2.975,0,0,1-.7-.534,7.221,7.221,0,0,0,.373,2.254l-.436-.225-.549.979c-.35-.33-1.015-.326-1.055-1.033-.005-.079-.121-.161-.2-.225-.145-.119-.3-.227-.525-.395a.622.622,0,0,0-.107.276,1.189,1.189,0,0,0,.124.46c.087.2.283.377,0,.589-.057.042-.008.226-.008.439l-.539-.6.253,1.087-.157.082-.48-.436-.58.507-.48-.626c-.371.19-.5-.042-.579-.416a3.09,3.09,0,0,0-.352-.909,1.355,1.355,0,0,0-.084.327,11.317,11.317,0,0,0,.036,1.135.405.405,0,0,1-.325.479.6.6,0,0,0-.448.394.82.82,0,0,1-.995.338c-.093-.044-.211-.038-.3-.086a1.9,1.9,0,0,1-.4-.266c-.086-.078-.11-.247-.2-.289-.389-.181-.435-.469-.243-.946-.5.1-.909.172-1.316.258a.159.159,0,0,0-.077.129c.02.341.045.683.08,1.024.023.216.064.43.1.665-.56.074-.791-.157-.775-.7-.192.092-.311.142-.423.206-.237.136-.238.289-.039.475.325.3.63.624.957.923a3.631,3.631,0,0,1,1.005,1.882,5.1,5.1,0,0,0,.314.736c.065.151.128.3.192.453l-.085.063a1.531,1.531,0,0,0-.287-.175,1.391,1.391,0,0,0-.359-.057c-.134-.011-.334.046-.388-.021a.64.64,0,0,1-.092-.439c.027-.231.109-.456.124-.7-.369.191-.3.788-.8.833l-.225-1.579-.083-.018c-.048.165-.088.334-.147.5-.107.292-.261.441-.61.28-.61-.282-.859-.155-1.034.485a8.557,8.557,0,0,0-.548,3.2c.087.772.287,1.531.4,2.3.126.9.125,1.833.326,2.718a26.06,26.06,0,0,1,.17,4.214,31.2,31.2,0,0,1-.217,3.171c-.112,2.871-.282,5.745-.256,8.617.022,2.453.322,4.9.425,7.356.052,1.217-.075,2.442-.1,3.664-.036,1.984-.3,5.069.1,7.043m26.353-75.976a1.771,1.771,0,0,0-.26-.379,1.088,1.088,0,0,0-.433-.224c-.4-.088-.821-.1-1.206-.229-.219-.071-.384-.3-.574-.464l-.127.045a1.168,1.168,0,0,0,.069.433c.125.2.318.359.46.552a.764.764,0,0,1,.191.407c-.023.732-.034.731.676.865.2.037.393.088.592.111a1.34,1.34,0,0,0,.308-.033c-.085-.273-.255-.528-.193-.7S1934.019,615.217,1934.165,615.113Zm-5.833,6.084a.8.8,0,0,1-.966.185.279.279,0,0,0-.227.046.6.6,0,0,1-.776-.03.738.738,0,0,0-.3-.1c-.451-.089-.9-.186-1.354-.247a1.338,1.338,0,0,0-.447.1l-.005.164c.149.052.3.11.448.154.123.036.289.014.372.089a2.9,2.9,0,0,0,2.279.555C1927.9,622.087,1928.31,621.92,1928.332,621.2Zm-42.3.846c.327-.144.727-.3,1.1-.5.074-.039.11-.249.084-.361a.586.586,0,0,1,.231-.634,3.124,3.124,0,0,0,.3-.363l-.348-.126.084-.434c-.479.413-.831.877-1.493.565.093.172.245.23.328.339a.509.509,0,0,1,.06.362c-.008.041-.19.081-.287.071-.293-.03-.271.145-.233.331C1885.913,621.53,1885.971,621.767,1886.034,622.043Zm44.271,7.982a7.889,7.889,0,0,0,.706.637.434.434,0,0,0,.405.021c.079-.063.05-.264.068-.4l.967-.355A1.668,1.668,0,0,0,1930.305,630.025ZM1873.4,581.62c-.211-.224-.41-.154-.556.087l-.3-.145c-.033.47.075.595.467.551a7.728,7.728,0,0,0,.949-.149.53.53,0,0,0,.317-.256,1.958,1.958,0,0,0,.076-.541,4.281,4.281,0,0,0-.605-.088,2.823,2.823,0,0,0-.533.084Zm57.409,32.9c-.21.535.223,1.321.691,1.3a1.011,1.011,0,0,0,.595-.366.464.464,0,0,0-.039-.45,8.074,8.074,0,0,0-1.02-.434l.125.461-.052.02Zm-38.039,17.132a6.86,6.86,0,0,1-.576-.428c-.145-.132-.262-.225-.437-.046a1.01,1.01,0,0,1-.239.13c-.113.065-.224.132-.336.2a1.536,1.536,0,0,0,.324.4,3.471,3.471,0,0,0,.536.142C1892.556,632.251,1892.714,632.159,1892.765,631.648Zm7.214-1.872c.368-.411.7-.777,1.024-1.151.031-.036.024-.168,0-.18a.483.483,0,0,0-.25-.038c-.283.032-.565.077-.9.125l-.086.291-.313-.279-.11.07Zm-21.861-7.513c-.215.078-.376.412-.238.538a.458.458,0,0,0,.437.046,7.011,7.011,0,0,0,.913-.783c.087-.088.082-.267.12-.405-.148.05-.341.057-.436.157-.367.387-.355.4-.74.034-.032-.03-.086-.034-.21-.081Zm21.758,4.377c-.373-.023-.622.169-.565.468.044.23-.039.652.426.679.129.008.249.125.381.158.109.027.277.051.336-.008a.568.568,0,0,0,.126-.376c0-.043-.192-.137-.281-.121-.366.066-.432-.171-.465-.434A1.618,1.618,0,0,1,1899.876,626.64Zm1.878-68.77a1.572,1.572,0,0,0,1.13.024,5.493,5.493,0,0,0,.636-.22l-.466-.376c-.042-.034-.078-.092-.123-.1-.093-.014-.215-.039-.281.005C1902.366,557.4,1902.1,557.611,1901.754,557.87Zm1.384,85.67a1.174,1.174,0,0,0-.067,1.558c.047.063.172.133.224.112a.337.337,0,0,0,.187-.222A2.33,2.33,0,0,0,1903.138,643.54Zm.434-33.683a2.394,2.394,0,0,1-.259.326c-.1.086-.3.125-.319.216a1.074,1.074,0,0,0,.014.611c.1.242.336.212.5.06.1-.09.117-.262.171-.4C1903.995,610.342,1903.995,610.342,1903.572,609.857Zm27.9-32.182.186.048c.066-.514.774-.238.917-.787l-.449.065a3.208,3.208,0,0,0-.237-.432.331.331,0,0,0-.244-.122c-.068.005-.182.107-.184.169C1931.447,576.968,1931.463,577.322,1931.47,577.675Zm-18.762,40.473-.108.038c-.014.12-.086.29-.032.352a5.033,5.033,0,0,0,.741.7c.053.041.265-.076.362-.166.056-.051.041-.2.033-.294-.011-.125-.047-.248-.079-.41C1913.263,618.529,1912.911,618.652,1912.708,618.148Zm-41.9-26.046c.17.184.33.46.426.439a.909.909,0,0,0,.563-.386c.119-.222-.243-.645-.539-.6C1871.107,591.582,1870.995,591.868,1870.811,592.1Zm13.785-27.5-.136.115c.165.181.325.51.495.515.472.014,1.01.121,1.356-.312-.157-.1-.311-.2-.466-.3s-.281-.109-.393.089c-.155.276-.379.253-.608.078C1884.762,564.729,1884.679,564.668,1884.6,564.606Zm-14.431,27.78c.224-.181.455-.278.521-.442.088-.218-.283-.57-.557-.56-.341.013-.406.323-.411.548C1869.716,592.061,1869.967,592.2,1870.165,592.386Zm17.857-27.6c-.266.459-.92.632-.521,1.249.324-.22.748-.322.758-.794C1888.262,565.11,1888.124,564.975,1888.022,564.788Zm45.928,55.549-.064.076c.277.225.414.465.081.738.536.135.869-.087,1.017-.662l-.3.075.012-.171Zm-1.18-.756c.113.178.171.36.3.447a3.629,3.629,0,0,0,.656.3c.01,0,.049-.029.056-.051.083-.266.163-.534.244-.8-.248.047-.4.193-.583.23A2.2,2.2,0,0,1,1932.77,619.581Zm-12.9,19.7a4.632,4.632,0,0,0,.22.587c.04.075.167.1.255.153a1.178,1.178,0,0,0,.124-.262,1.2,1.2,0,0,0,.02-.4,1.757,1.757,0,0,0-.146-.495.31.31,0,0,0-.236-.071A4.525,4.525,0,0,0,1919.872,639.28Zm-39.811-37.34c-.565-.228-.9.091-1.223.5C1879.475,602.69,1879.962,602.478,1880.061,601.94Zm38.319,37.918c-.157.157-.375.306-.353.365.137.361.329.7.537,1.119.1-.172.2-.278.185-.35C1918.66,640.652,1918.535,640.32,1918.38,639.858Zm-6.638-11.684c.64.1.967-.138.968-.623a.283.283,0,0,0-.152-.209.264.264,0,0,0-.241.059C1912.126,627.632,1911.957,627.88,1911.742,628.174Zm1.955-15.6-.151-.095a2.822,2.822,0,0,0-.495.467c-.076.115-.03.312-.038.472.174-.056.425-.061.506-.181A2.006,2.006,0,0,0,1913.7,612.571Zm20.5,9.623-.036-.126c-.193-.135-.381-.278-.583-.4a.279.279,0,0,0-.244-.029.261.261,0,0,0-.073.24c.076.176.168.45.3.476C1933.756,622.394,1933.986,622.256,1934.2,622.194Zm-64.644-20.019c.155.148.291.319.322.3a4.86,4.86,0,0,0,.555-.4l-.381-.4Zm43.967,40c.265.119.071.743.559.535a.663.663,0,0,0,.174-.621C1914.024,641.585,1913.788,642.12,1913.524,642.178Zm6.49-13.359c-.182.2-.4.34-.4.47s.27.382.349.357c.177-.057.309-.253.46-.392Zm-10.9-11.928c-.173.2-.346.3-.35.417-.007.215.553.483.744.374.066-.038.15-.183.133-.206C1909.495,617.294,1909.331,617.13,1909.11,616.891Zm-24.054,1.279a.7.7,0,0,0,1.149-.272.321.321,0,0,0-.025-.247c-.015-.029-.149-.027-.206,0C1885.665,617.819,1885.363,618,1885.056,618.17Zm8.508,13.329-.8.678c.082.07.215.215.237.2a5.415,5.415,0,0,0,.661-.539C1893.692,631.808,1893.614,631.666,1893.564,631.5Zm40.562-13.252.054-.074-.727-.831-.346.577Zm-64.661-15.482-.116-.229a6.763,6.763,0,0,0-.689.272.29.29,0,0,0-.093.271c.031.071.2.156.257.127A7.206,7.206,0,0,0,1869.465,602.765Zm65.594-8.6a3.24,3.24,0,0,0,.521.6c.151.1.341.043.314-.233C1935.855,594.131,1935.712,594.048,1935.059,594.164Zm-58.791,36.212.97-.787C1876.607,629.478,1876.231,629.763,1876.268,630.376Zm51.84-60.632.337-.325a4.464,4.464,0,0,0-.609-.292c-.056-.019-.164.118-.248.183Zm-17.129,66.526c-.251-.272-.388-.431-.537-.577-.051-.05-.168-.112-.192-.092-.061.051-.135.159-.117.218.048.158.1.368.226.434C1910.5,636.328,1910.71,636.27,1910.979,636.27Zm-.865-51.957a1.969,1.969,0,0,0,.186-1.25C1909.886,583.365,1909.871,583.467,1910.114,584.313Zm1.287,43.575.552-.853-.848.041ZM1934.43,593.4c.427.535.453.526.9-.216C1934.955,592.949,1934.783,593.408,1934.43,593.4Zm-54.75,28.08.309.12c.1-.13.186-.224.255-.327.049-.074.131-.2.106-.234a.417.417,0,0,0-.269-.171C1879.657,620.864,1879.791,621.234,1879.68,621.481Zm9.891-15.149.322-.27a2.283,2.283,0,0,0-.485-.325c-.059-.022-.194.162-.294.251Zm18.53-27.894.139.075c.09-.205.189-.407.267-.617a.387.387,0,0,0,.019-.281.26.26,0,0,0-.252-.049.356.356,0,0,0-.165.24A5.533,5.533,0,0,0,1908.1,578.438Zm-26.929-11.18a.817.817,0,0,0,.988.222c.044-.038.095-.13.077-.164a.237.237,0,0,0-.169-.123C1881.8,567.2,1881.524,567.23,1881.172,567.258Zm44.977,2.189-.063.122c.2.07.448.244.593.182s.168-.365.246-.562l-.114-.039Zm-12.086,8.853,1.025-.9A.954.954,0,0,0,1914.063,578.3Zm20.339,19.235c.144-.126.312-.227.3-.269a1.913,1.913,0,0,0-.243-.413l-.38.284Zm-.216,23.777-.031.18.777.391.1-.073c-.063-.142-.092-.364-.2-.41A2.239,2.239,0,0,0,1934.186,621.312Zm-54.233-53.5.022.245.645.073-.06-.487Zm15.335,39.424-.463-.463c-.053.06-.164.141-.15.177a5.676,5.676,0,0,0,.26.555Zm29.234,30.5-.068-.1-.8.559C1923.939,638.551,1924.241,638.383,1924.522,637.735Zm-55.33-40.8c.185-.2.325-.35.446-.511a1.845,1.845,0,0,0-.2-.2c-.14.142-.286.278-.411.432C1869.01,596.676,1869.1,596.785,1869.192,596.934Zm52.948,41.531-.043-.252h-.63c.051.137.1.39.154.392A1.738,1.738,0,0,0,1922.14,638.465Zm-21.247-32.822a5.387,5.387,0,0,0-.125.591c-.007.073.048.2.1.22a.278.278,0,0,0,.232-.092C1901.32,606.1,1901.215,605.886,1900.893,605.643Zm10.637,13.795c.156-.152.319-.242.345-.362.018-.083-.152-.207-.238-.313a2.615,2.615,0,0,0-.289.389C1911.328,619.191,1911.437,619.3,1911.53,619.438Zm15.981-1.723c.1-.175.213-.317.188-.35a2.081,2.081,0,0,0-.4-.364c-.007-.005-.167.145-.154.168A6.226,6.226,0,0,0,1927.511,617.715ZM1915.83,638.4c-.706.223-.84.424-.554.836Zm-40.353-37.851c.025.312.161.441.45.36.2-.057.357-.148.2-.36Zm48.32,22.639-.1.224.43.257.161-.361Zm-51.525-15.615a.616.616,0,0,0-.539.6h.441Zm42.461,6.442c.093.088.221.29.309.274a.534.534,0,0,0,.466-.544Zm-8.013-36.138c.3.263.485.264.621.033.037-.063-.041-.193-.066-.293Zm-28.213-2.6.031-.093a2.6,2.6,0,0,0-.27-.214,1.858,1.858,0,0,0-.348-.153c-.009,0-.091.129-.076.149a.986.986,0,0,0,.294.3A.923.923,0,0,0,1878.507,575.283Zm3.342,50.779-.219-.161c-.11.148-.222.3-.32.452a1.174,1.174,0,0,0,.182.139C1881.619,626.356,1881.733,626.208,1881.849,626.062Zm30.12,13.877-.1.095.363.4.4-.4ZM1913.5,603.7l.81.419C1914.178,603.626,1913.979,603.524,1913.5,603.7Zm-29.038,10.407c.431.21.633.106.766-.354Zm7.85-21.072.154.172.438-.312a1.733,1.733,0,0,0-.227-.213A3.79,3.79,0,0,0,1892.316,593.036Zm21.046-16.239-.091.09.294.338.358-.322-.068-.106Zm-43.056,16.984-.223-.192a2.272,2.272,0,0,0-.171.4,1.752,1.752,0,0,0,0,.4,1.364,1.364,0,0,0,.277-.244A1.448,1.448,0,0,0,1870.306,593.781Zm.342,6.148-.091-.025c.033.14.02.34.108.406a1.335,1.335,0,0,0,.492.127l-.109.02Zm43.429-12.362.131.22.438-.254-.148-.249ZM1883.9,569.312l.06-.2c-.258,0-.377-.464-.841-.077Zm30.077,45c.167.107.258.211.323.2a1.045,1.045,0,0,0,.307-.19c-.056-.075-.125-.22-.168-.213A2.175,2.175,0,0,0,1913.979,614.312Zm-21.024,5.07c.053-.149.149-.282.116-.362a.423.423,0,0,0-.294-.2c-.073-.011-.166.106-.25.165Zm7.958,16.837-.187.1.273.56a1.337,1.337,0,0,0,.2-.137C1901.113,636.562,1901.011,636.391,1900.913,636.219Zm1.722,5.41-.016-.147c-.131-.024-.305-.109-.382-.056-.1.071-.128.251-.187.384l.088.074Zm12.585.958.174-.132-.315-.5c-.055.061-.17.153-.157.178A4.757,4.757,0,0,0,1915.22,642.587Zm-1.845-23.006a1.979,1.979,0,0,0-.343-.268c-.026-.012-.184.153-.17.182a.664.664,0,0,0,.238.266C1913.133,619.78,1913.243,619.671,1913.375,619.581Zm8.132-58.4-.175.1a.94.94,0,0,0-.166.311c-.007.056.126.13.195.2a1.134,1.134,0,0,0,.243-.311C1921.631,561.393,1921.543,561.277,1921.507,561.178Zm-20.11-3.309-.372.643C1901.523,558.46,1901.616,558.3,1901.4,557.869Zm28.337,56.147c-.463.269-.5.43-.2.764ZM1875.973,599.5l-.72-.063C1875.455,599.85,1875.586,599.869,1875.973,599.5Zm27.982,41.868-.149-.076-.5.595c.219-.018.367.01.406-.042A2.713,2.713,0,0,0,1903.955,641.365Zm9.772-13.985V627.2a1.84,1.84,0,0,0-.492-.036c-.056.01-.08.2-.153.4Zm.174-13.136c.176-.2.316-.358.445-.523.008-.01-.073-.088-.113-.135-.137.164-.274.329-.409.494A1.074,1.074,0,0,0,1913.9,614.244Zm-18.969,22.607-.16.107a3.766,3.766,0,0,0,.238.409,1.71,1.71,0,0,0,.25-.129Zm-.509-30.89-.082.113.247.32.393-.31Zm-10.627-35.8.2.067c.059-.155.124-.309.168-.469a1.769,1.769,0,0,0-.227-.1Zm38.446,55.865-.376.6C1922.323,626.592,1922.4,626.482,1922.242,626.025Zm-19.4-14.516.037-.218a3.822,3.822,0,0,0-.435-.071,1.5,1.5,0,0,0-.052.243Zm22.619-44.4.093.1.346-.224-.378-.383Zm-42.139-2.929.024-.2-.575-.069-.023.2Zm-7.379,42.722-.085.171a1.775,1.775,0,0,0,.362.2c.034.011.115-.128.174-.2Zm32.874,10.716c-.086.155-.187.288-.167.311a.989.989,0,0,0,.312.206c.011.006.128-.13.113-.161A2.39,2.39,0,0,0,1908.816,617.617Zm-28.275-16.657c.016.5.112.6.55.6Zm28.441,38.792-.09-.033a.893.893,0,0,0-.135.256.911.911,0,0,0,.036.334c.005.02.13.035.131.03a1.56,1.56,0,0,0,.081-.32A1.355,1.355,0,0,0,1908.982,639.752Zm1.372-27.285.191.033.106-.827-.125-.02Zm-23.979-46.816.185-.089-.229-.472-.186.09Zm20.75-8.5.08-.179-.517-.233-.081.181Zm10.468,81.262-.463.251.2.327.107-.028Zm-4.61-24.163a1.542,1.542,0,0,0,.244-.328c.016-.042-.081-.125-.127-.19a1.032,1.032,0,0,0-.243.22C1912.833,614,1912.914,614.1,1912.983,614.253Zm8.55,12.186c.024-.444-.049-.519-.409-.46Zm3.288-.019-.018.182.488.048a1.212,1.212,0,0,0,.007-.172C1925.14,626.451,1924.98,626.437,1924.821,626.42Zm-53.457-10.38c.407-.011.446-.081.319-.5Zm42.41-11.01.178-.114.148-.19c-.079-.057-.154-.147-.241-.161-.058-.009-.191.089-.19.137A1.119,1.119,0,0,0,1913.774,605.03Zm-6.42-25.882a1.088,1.088,0,0,0-.169.294c-.006.037.136.148.174.133a.353.353,0,0,0,.191-.2C1907.563,579.337,1907.451,579.257,1907.354,579.148ZM1886,619.672l-.056.191.576.165.052-.176Zm46.4-41.6-.081-.172-.538.244.083.177Zm-17.69,35.026.528-.358C1914.905,612.6,1914.727,612.727,1914.713,613.1Zm17.693,11.173.077.1c.311,0,.414-.206.391-.536Zm-21.162-13.826c-.092.121-.177.19-.19.27-.006.041.134.155.182.142a.339.339,0,0,0,.188-.191C1911.437,610.632,1911.334,610.552,1911.244,610.445Zm23.676-.855-.126-.136-.371.471.142.117Zm-62.443-8.972.119.176.376-.263-.1-.152Zm21.036,36.36a3.518,3.518,0,0,0,.255-.406c.006-.013-.136-.123-.153-.111a.674.674,0,0,0-.217.234C1893.377,636.74,1893.449,636.828,1893.513,636.978Zm-21.631-24.571.166-.076-.269-.56-.147.067Zm59.974,10.637c-.095.1-.207.181-.2.227.02.084.114.15.176.224.057-.062.15-.12.158-.188S1931.923,623.164,1931.856,623.044Zm-60.117,1.451-.171-.1-.267.442.161.1Zm56.232-10.568-.118.165.4.272.11-.161Zm-18.088,33.54-.164.146c.107.106.212.213.325.312a.478.478,0,0,0,.1-.088C1910.063,647.71,1909.972,647.589,1909.883,647.467Z" fill="#d98b74"/>
    </g>
    <line id="Line_1" data-name="Line 1" x1="86" transform="translate(1861.897 691.089)" fill="none" stroke="#d98b74" stroke-width="1"/>
    <g id="Group_2" data-name="Group 2">
      <path id="Path_4" data-name="Path 4" d="M1948.744,602.409l.775-.661-.775-.6Z" fill="#d98b74"/>
      <path id="Path_5" data-name="Path 5" d="M1948.744,581.036v3.917a.663.663,0,0,1,.406-.1c.44.132.942.163,1.218.666.077.141.4.2.616.2a1.946,1.946,0,0,0,.6-.236c-.059-.118-.084-.253-.164-.312-1.059-.778-1.039-2.21-1.974-3.149l.608.063C1949.448,581.873,1948.883,581.648,1948.744,581.036Z" fill="#d98b74"/>
      <path id="Path_6" data-name="Path 6" d="M1861.336,620.832V555.956a.635.635,0,0,1-.141.073,10.981,10.981,0,0,1-1.367.216c-.564.063-.721-.117-.673-.794l.426.209c.211-.347.5-.449.8-.126-.1-.242-.178-.45-.261-.658a4.1,4.1,0,0,1,.768-.121,3.185,3.185,0,0,1,.446.05v-1.15a3.818,3.818,0,0,1-.652.639c-.477.284-1.005.484-1.508.727-.383.184-.814.327-.594.931.039.107-.151.326-.275.456a3.362,3.362,0,0,1-.48.357c.486.03.926-.018,1.156.5.017.037.155.005.215.04.13.075.3.147.358.267.2.409.384.84-.206,1.121a.215.215,0,0,0-.092.187c.144.448-.2.559-.473.741-.316.21-.611.45-.943.7l1.11.281c.747-.329.865-.267,1.242.809l.571-.043c-.03.1-.03.168-.065.2-.361.312-.464.586.02.9.143.094.169.366.248.556l-.135.081-.409-.286a5.848,5.848,0,0,1-.006.675c-.022.171-.042.42-.154.49-.668.416-.328,1.077-.367,1.606a1.748,1.748,0,0,1-.529,1.263,10.751,10.751,0,0,0-1.03.945c.029.043.058.086.086.129a2.661,2.661,0,0,1,.421-.094,3.171,3.171,0,0,1,.465.033,1.808,1.808,0,0,1-.163.457c-.208.3-.45.569-.686.862l.463.388c-.331.044-.559.148-.715.082a10.042,10.042,0,0,1-1.594-.8.955.955,0,0,0-1.174-.083,12.621,12.621,0,0,0-1.035.921l.491,1.318a4.437,4.437,0,0,0-1.113.444,4.139,4.139,0,0,0-.709.907c.486.5.967.36,1.478.024.114.679-.533.607-.755.924l.407.059c-.144.22-.255.389-.365.559l.038.037.6-.5a2.309,2.309,0,0,1-1.315,3.2c-.275.131-.548.269-.822.4.027.061.055.122.083.183l1.25-.345a.617.617,0,0,0,.473.949l-.3.51c1.166-.123.964.9,1.385,1.424l-1.107,1.207c.282.417.569.84.87,1.283l.846-.509c-.073.646-.137,1.09-.787,1.24a2.06,2.06,0,0,0-.779.541,8.839,8.839,0,0,0-.637.7l.377.557.459.271a2.706,2.706,0,0,1-.508.559c-.184.116-.471.063-.663.172-.273.154-.659.255-.551.739a.752.752,0,0,1-.088.572c-.38.448-1.012.741-.683,1.529a3.889,3.889,0,0,1,.145.96l.212.027c.164-.15.333-.295.489-.453s.286-.315.459-.508c.417,1.109.216,1.516-.779,1.757-.113.028-.224.064-.338.087a.8.8,0,0,0-.736.8,1.506,1.506,0,0,0,1.444-.159c.128-.083.518-.033.546.044.2.547.52.627.913.373l.8.468a5.066,5.066,0,0,0-.676.641.791.791,0,0,0-.1.543c.56.28.415.635.182,1.082l1.183-.578a2.461,2.461,0,0,0-.092.4c0,.191.022.382.035.574a3.69,3.69,0,0,0,.587-.281,2.428,2.428,0,0,0,.376-.417c.035.025.07.05.1.076q-.086.448-.173.9l.177.052.347-.917c.214.179.374.416.579.464.544.127.49.446.279.772a3.209,3.209,0,0,1-.617.59c-.509.45-1.021.9-1.532,1.343.028.048.057.1.086.145.135-.032.305-.023.4-.1.409-.347.792-.727,1.2-1.08.12-.1.289-.233.418-.217.1.012.23.236.238.371.029.48.011.963.011,1.489a2.048,2.048,0,0,0,.477-.04c.336-.09.663-.109.731.291.019.112-.324.286-.591.505a5.805,5.805,0,0,1,.978-.152,1.008,1.008,0,0,1,.649.226,1.969,1.969,0,0,1,.291.666,1.882,1.882,0,0,1-.669.231,1.929,1.929,0,0,1-.847-.283c-.622-.385-1.215-.817-1.768-1.2-.454.336-.842.593-1.194.892-.327.277-.616.6-.92.9l.157.17,1.494-.956.093.119-.867,1.319.138.094.78-.838c.262.871.033,1.349-.695,1.564a6.072,6.072,0,0,0-.9.233c-.326.155-1.02.087-.634.825.028.054-.1.191-.16.287-.085.136-.173.27-.26.4l.127.147,1.02-.636c.087.121.16.22.189.262a11.065,11.065,0,0,1,1.208-.909c.727-.41.735-.38.812.452a.76.76,0,0,0,.122.31c-.49.5-.924.914-1.324,1.358-.525.582-1.03,1.182-1.529,1.787a.634.634,0,0,0-.181.447c.124.438-.131.6-.447.751a1.969,1.969,0,0,0-.312.245l.428.318-.809.637.057.107,1.028-.143-.832.753.079.111,1.3-.741c-.125.44-.221.778-.318,1.124l1.008-.166c-.012.231-.023.463-.035.695l0,0c.319.409.055.653-.273.822-.36.186-.756.3-1.127.466s-.738.362-1.106.545l.079.163,1.636-.69c.262.206.449.47.645.477.239.008.486-.2.729-.314l.117.146a2.14,2.14,0,0,1-.363.45c-.63.448-1.278.87-1.917,1.3-.253.172-.5.355-.748.533l.074.1.748-.158v.779l.9-.495.121.171c-.122.161-.234.331-.369.481a6.568,6.568,0,0,0-.56.585c-.077.111-.034.306-.046.463a3.608,3.608,0,0,0,.4-.141c.268-.128.529-.269.793-.405l.1.164c.167-.5.539-1,.982-.678.634.466,0,.872-.43,1.208l.173.182,1.14-.622c.1.652-.26.951-.753,1.191-.152.074-.344.292-.333.43.033.411-.252.436-.505.578-.565.318-1.442.308-1.437,1.274,0,.2.005.39.008.585.2-.109.467-.17.592-.336a7.056,7.056,0,0,0,.541-1.028c.192.38.273.8.518.948.223.139.624-.009,1.068-.038.058.251.134.586.207.909l.4-.1c-.06.289-.108.518-.156.748l.146.057c.139-.308.278-.614.443-.979.121.183.2.309.286.432s.181.252.195.272l.752-1.312c.358.163.575.286.426.714a3.225,3.225,0,0,0-.019.975,2.874,2.874,0,0,1,.746-.2A1.487,1.487,0,0,1,1861.336,620.832Zm-7.01-43.229c-.131-.215-.262-.371-.238-.4.18-.222.391-.419.592-.623a2.566,2.566,0,0,1,.289.288C1854.8,577.1,1854.593,577.309,1854.326,577.6Zm1.435-4.022a1.917,1.917,0,0,1-.4.352,2.473,2.473,0,0,1,0-.571,3.348,3.348,0,0,1,.246-.579l.322.276A2.045,2.045,0,0,1,1855.761,573.581Zm-1.966,13.06c-.074.042-.326-.081-.37-.182a.416.416,0,0,1,.134-.39,9.281,9.281,0,0,1,.993-.393l.168.33A10.381,10.381,0,0,1,1853.8,586.641Zm1.521-1.051c-.045.025-.241-.221-.463-.435l.714-.715.549.575A7.152,7.152,0,0,1,1855.316,585.59Zm.412-14.542c-.285-.273-.647-.467-.643-.653.006-.324.1-.772.59-.789.4-.015.931.491.8.806C1856.384,570.648,1856.05,570.789,1855.728,571.048Zm.72,11.42c-.126-.1-.108-.383-.154-.586l.13.037.529.7A1.109,1.109,0,0,1,1856.448,582.468Zm.826-11.2c-.139.03-.37-.369-.614-.633.263-.338.426-.75.648-.785.426-.068.948.541.776.861A1.309,1.309,0,0,1,1857.274,571.273Zm1.35,22.527h-.636a.885.885,0,0,1,.777-.862Zm.607-10.634-.171-.254.573-.344.141.218Zm-1.634,34.8-.232-.144.384-.638.247.14Zm-.141-12.826.46-.725C1858.1,605.019,1858.042,605.12,1857.456,605.136Zm.747-5.234q-.18-.411-.361-.821l.211-.1q.2.4.389.808Z" fill="#d98b74"/>
      <path id="Path_7" data-name="Path 7" d="M1949.234,621.677c-.085-.238-.145-.485-.215-.728l-.275-.259v1.577c.255.08.519.16.833.256C1949.457,622.23,1949.334,621.958,1949.234,621.677Z" fill="#d98b74"/>
      <path id="Path_8" data-name="Path 8" d="M1950.988,607.055c-.366-.616-.738-1.155-1.023-1.738-.333-.681-.563-1.444-1.221-1.8v2.835a.859.859,0,0,1,.279.111A2.79,2.79,0,0,0,1950.988,607.055Z" fill="#d98b74"/>
      <path id="Path_9" data-name="Path 9" d="M1948.744,618.016v1.316c.029.034.056.068.085.1l.794-.435Z" fill="#d98b74"/>
      <path id="Path_10" data-name="Path 10" d="M1950.5,625.4c-.585.189-1.168.385-1.752.58v.234c.24-.089.48-.181.722-.265.592-.2,1.189-.393,1.784-.589-.016-.049-.031-.1-.046-.148C1950.967,625.275,1950.728,625.326,1950.5,625.4Z" fill="#d98b74"/>
      <path id="Path_11" data-name="Path 11" d="M1861.336,622.412a2.4,2.4,0,0,0-1.008,1.3,5.857,5.857,0,0,0,.862-.385.959.959,0,0,1,.146-.048Z" fill="#d98b74"/>
      <path id="Path_12" data-name="Path 12" d="M1953.415,575.678a1.943,1.943,0,0,0-.552-.307c-.517-.265-1.046-.506-1.545-.8-.22-.13-.6-.323-.275-.653.1-.1.469-.009.677.082.471.206.918.467,1.374.707l.143-.184c-.4-.572-.819-1.137-1.2-1.722a1.473,1.473,0,0,1-.308-.736.717.717,0,0,0-.626-.822,5.113,5.113,0,0,0-2.355-.089v1.229c.28-.17.516-.417.9-.18-.466.77-.617.984-.9.76v7.614c.743.242.719.214,1.112-.56a1.245,1.245,0,0,0-.048-1.158c-.222-.521-.46-1.034-.711-1.594.585.134,1.083.212,1.556.363.813.261.559-.759,1.089-.855.042.045.1.094.145.153.207.27.462.589.8.328s.138-.632-.063-.932c-.133-.2-.279-.39-.42-.584l.162-.16a5.4,5.4,0,0,0,.7.589c.136.082.353.03.534.039A1.441,1.441,0,0,0,1953.415,575.678Zm-3.419-1.2a4.55,4.55,0,0,1-.751-.863c.942-.167,1.148-.047,1.2.528C1950.487,574.537,1950.214,574.623,1950,574.474Z" fill="#d98b74"/>
      <path id="Path_13" data-name="Path 13" d="M1872.435,531.37h4.041a2.142,2.142,0,0,0-.148-.188l.2-.166c.119.089.239.178.357.268a1.119,1.119,0,0,0,.146.086h.564a.652.652,0,0,0,.167-.2c.161-.284.337-.27.565-.128.17.107.34.217.51.327h2.563c.021-.031.046-.059.065-.092.018.033.037.062.056.092H1934.7a.986.986,0,0,0-.594-.083c-.324.05-.709-.29-1.066-.452.166-.217.332-.433.495-.652a.344.344,0,0,0,.036-.108l.126-.127-.767-.469.4-.235a9.75,9.75,0,0,1-1.03-.757c-.419-.4-.777-.856-1.175-1.277s-.333-.737.338-.948c-.521-.349-.983-.652-1.435-.968a.748.748,0,0,1-.2-.267.769.769,0,0,0-1.032-.457,3.767,3.767,0,0,1-2.628.334c-.624-.226-1.035.177-1.451.48s-.639.268-.806-.209a2.016,2.016,0,0,0-.455-.651c-.226-.243-.49-.45-.738-.672.67.007,1.073-.247,1.088-.767a1.692,1.692,0,0,0-.609-1.406c-.47-.351-.392-.783-.451-1.235a6.069,6.069,0,0,1-.915-.014c-.166-.025-.419-.159-.448-.286-.14-.606-.608-.7-1.091-.787a7.679,7.679,0,0,1-1.191-.241c-.863-.318-1.371.322-1.987.675-.061.036-.073.169-.095.26-.078.313-.128.633-.226.938a1.123,1.123,0,0,1-1.534.66,4.2,4.2,0,0,0-1.529-.482,2.486,2.486,0,0,1-1.239-.338c-.72-.359-1.45-.7-2.2-1.006-.62-.251-1.265-.444-1.905-.641-.7-.216-1.244-1.106-2.11-.454-.333-.627-.694-.644-1.244-.162a1.4,1.4,0,0,1-.757.417,2.927,2.927,0,0,0-2.14,1.324,1.049,1.049,0,0,1-.706.357,3.246,3.246,0,0,0-1.7.546,4.67,4.67,0,0,1-1.291.777c-.227.135-.422.323-.639.476-.136.095-.286.238-.432.241a2.34,2.34,0,0,0-1.675,1.033,1.411,1.411,0,0,1-1.276.468,4.713,4.713,0,0,0-1.606.282c-.407.134-.749.46-1.148.632-.365.156-.575.3-.1.823a9.394,9.394,0,0,1-1.157.039c-.391-.039-.712-.035-.952.356-.1.156-.34.223-.521.321-.133.072-.34.091-.4.2-.263.473-.55.366-.957.178-.368-.17-.961-.391-1.188-.225a4.494,4.494,0,0,1-2.075.619c-.417.073-.57-.072-.655-.458l.463-.273c-.2-.361-.357-.714-.571-1.03a1.665,1.665,0,0,0-2.759.013c-.044.069-.005.2.012.3a.543.543,0,0,1-.616.675c-.287-.023-.575-.07-.862-.065-.688.013-.829-.133-.778-.848l.64-.263c-.577-.28-.89-.24-1.135.063s-.482.594-.731.884c-.287.333-.227.6.2.736a4.419,4.419,0,0,0,.57.035c.338.053.753-.027.922.495l-.653.192c.041.044.083.087.125.13-.127.137-.238.369-.383.393a7.4,7.4,0,0,0-1.05.463,1.265,1.265,0,0,0-.9,1.34h.656c-.313.449-.463.493-.847.2-.46-.352-.871-.77-1.341-1.106a1.632,1.632,0,0,0-2.158.181c-.206.2-.394.415-.7.743l.978.426A1.379,1.379,0,0,1,1872.435,531.37Zm57.029-5.154c.083-.047.167-.093.251-.139.053.142.179.309.141.421a1.661,1.661,0,0,1-.351.449c-.1-.1-.291-.2-.281-.283A1.37,1.37,0,0,1,1929.464,526.216Zm-21.1-6.533.745.337-.115.257-.747-.333Zm-5.82.667c.1-.065.271-.029.405-.008.065.01.118.094.177.142l.672.543a7.934,7.934,0,0,1-.916.317,2.27,2.27,0,0,1-1.628-.035C1901.746,520.935,1902.132,520.625,1902.541,520.35Zm-1.805.958c.315.626.181.852-.536.926Zm-26.843,8.7.828.1c-.011.1-.023.193-.034.29l-.828-.1C1873.871,530.206,1873.882,530.109,1873.893,530.012Z" fill="#d98b74"/>
      <path id="Path_14" data-name="Path 14" d="M1949.94,589a.865.865,0,0,1,.466-.118c.411.045.815.133,1.131.188.856-.748.256-1.146-.471-1.585h.586l-2.908-2.232V595.8l.119-.151.182.2-.3.383v4.57c.312.133.6.166.888-.52.337.473.579.814.821,1.155l.213-.065.063-1.094.687.341.078-.117c-.515-.429-1.037-.849-1.543-1.29a2.946,2.946,0,0,1-.659-.7c-.083-.145.043-.409.075-.619.169.124.348.236.5.375.129.115.283.4.332.375.536-.221.816.065,1.094.685a9.777,9.777,0,0,1,.449-1.01c.251-.418.1-.672-.262-.907a5.624,5.624,0,0,1-.826-.637.574.574,0,0,1-.176-.465c.362-.919.214-1.316-.647-1.6-.074-.025-.149-.048-.229-.073.139-.147.174-.191.216-.228.768-.653.787-1.032.144-1.814a.507.507,0,0,1-.005-.492c.386-.387.188-.684-.069-1.01a3.468,3.468,0,0,1-.62-.9,1.16,1.16,0,0,1,.148-.8A1.205,1.205,0,0,1,1949.94,589Z" fill="#d98b74"/>
      <path id="Path_15" data-name="Path 15" d="M1950.334,612.127c-.22-.448-.46-.906-.057-1.394a.356.356,0,0,0,.019-.331,4.67,4.67,0,0,0-1.078-1.452,2.373,2.373,0,0,1-.474-.388v3.085l.393-.1a1.5,1.5,0,0,1-.393.723v.552a1.032,1.032,0,0,1,.177.038c.151.067.193.386.284.591l-.142.106-.319-.161v4.193l.4.2.174-.075c-.133-.72-.267-1.44-.416-2.242l1.942.765.112-.171c-.247-.252-.5-.5-.743-.757a4.566,4.566,0,0,1-.776-.845c-.087-.155.1-.464.165-.7a2.833,2.833,0,0,1,.425.348c.171.2.289.456.466.655a.463.463,0,0,0,.352.077c.236-.028.468-.094.687-.142-.464-.58-.99-1.239-1.569-1.962C1950.487,612.684,1950.5,612.461,1950.334,612.127Z" fill="#d98b74"/>
    </g>
    <line id="Line_2" data-name="Line 2" x1="50" transform="translate(1948.744 705.218)" fill="none" stroke="#d98b74" stroke-width="1"/>
    <line id="Line_3" data-name="Line 3" x1="50" transform="translate(1811.397 705.218)" fill="none" stroke="#d98b74" stroke-width="1"/>
    <g id="Rectangle_8-2" data-name="Rectangle 8" transform="translate(1861.397 531.203)" fill="none" stroke="#121212" stroke-miterlimit="10" stroke-width="1">
      <rect width="87.408" height="192.353" rx="7.238" stroke="none"/>
      <rect x="0.5" y="0.5" width="86.408" height="191.353" rx="6.738" fill="none"/>
    </g>
    <g id="Group_3" data-name="Group 3" transform="translate(1699.337 302.703)">
      <path id="Path_90" data-name="Path 90" d="M100.12,56.78a5.28,5.28,0,0,1,5.29-5.28" transform="translate(73.94 199)" fill="none" stroke="#231f20" stroke-miterlimit="10" stroke-width="0.5"/>
      <path id="Path_91" data-name="Path 91" d="M158.7,51.5a5.28,5.28,0,0,1,5.3,5.28" transform="translate(73.94 199)" fill="none" stroke="#231f20" stroke-miterlimit="10" stroke-width="0.5"/>
      <path id="Path_92" data-name="Path 92" d="M164,146.41a5.29,5.29,0,0,1-5.29,5.29" transform="translate(73.94 248)" fill="none" stroke="#231f20" stroke-miterlimit="10" stroke-width="0.5"/>
      <path id="Path_93" data-name="Path 93" d="M105.41,151.7a5.29,5.29,0,0,1-5.29-5.29" transform="translate(73.94 248)" fill="none" stroke="#231f20" stroke-miterlimit="10" stroke-width="0.5"/>
    </g>
    <text id="tree" transform="translate(1883.397 627.203)" fill="#161616" font-size="20" font-family="YesevaOne-Regular, Yeseva One"><tspan x="0" y="0">tree</tspan></text>
  </g>
</svg>
